<svg xmlns:sodipodi="http://sodipodi.sourceforge.net/DTD/sodipodi-0.dtd" style="fill:none;stroke:none;" xmlns:cc="http://creativecommons.org/ns#" height="800" viewBox="0 0 800 800" inkscape:export-xdpi="96" inkscape:export-ydpi="96" xmlns:rdf="http://www.w3.org/1999/02/22-rdf-syntax-ns#" xmlns:svg="http://www.w3.org/2000/svg" version="1.1" xmlns="http://www.w3.org/2000/svg" xmlns:dc="http://purl.org/dc/elements/1.1/" xmlns:inkscape="http://www.inkscape.org/namespaces/inkscape" width="800" xmlns:osb="http://www.openswatchbook.org/uri/2009/osb" xmlns:xlink="http://www.w3.org/1999/xlink">
    <defs/>
    <sodipodi:namedview bordercolor="#666666" pagecolor="#ffffff" inkscape:pagecheckerboard="true" borderlayer="true" inkscape:document-units="px"/>
    <title></title>
    <g inkscape:label="Animation" inkscape:groupmode="layer" id="MainComposition_73401283ce5a4347ac8b7ef7651191a5">
        <g inkscape:label="Capa_1 1" inkscape:groupmode="layer" transform="matrix(1.65627, 0, 0, 1.65627, 0, 0)" opacity="1" id="Layer_52cc24a4390f49db80ae65605c9a1144">
            <g stroke="#00000000" opacity="1" transform="matrix(1, 0, 0, 1, 0, 0)" fill="#3abeff" stroke-width="1" fill-opacity="1" inkscape:label="Group" stroke-opacity="1" id="Stroke_9a42b755fca44c45988a54c576a6a9f2">
                <path style="" sodipodi:nodetypes="ccccccccccccc" d="M 477.043,219.205 C 477.043,219.205 378.575,48.677 378.575,48.677 370.601,34.875 355.892,26.385 339.968,26.385 339.968,26.385 143.041,26.385 143.041,26.385 127.118,26.385 112.413,34.875 104.433,48.677 104.433,48.677 5.971,219.205 5.971,219.205 -1.99,233.006 -1.99,249.99 5.971,263.793 5.971,263.793 104.433,434.336 104.433,434.336 112.413,448.138 127.118,456.629 143.041,456.629 143.041,456.629 339.967,456.629 339.967,456.629 355.892,456.629 370.601,448.138 378.574,434.336 378.574,434.336 477.043,263.793 477.043,263.793 485.003,249.99 485.003,233.006 477.043,219.205 477.043,219.205 477.043,219.205 477.043,219.205 Z"/>
                <path style="fill:none;stroke-dasharray:none;stroke-linecap:butt;stroke-linejoin:miter;" sodipodi:nodetypes="ccccccccccccc" d="M 477.043,219.205 C 477.043,219.205 378.575,48.677 378.575,48.677 370.601,34.875 355.892,26.385 339.968,26.385 339.968,26.385 143.041,26.385 143.041,26.385 127.118,26.385 112.413,34.875 104.433,48.677 104.433,48.677 5.971,219.205 5.971,219.205 -1.99,233.006 -1.99,249.99 5.971,263.793 5.971,263.793 104.433,434.336 104.433,434.336 112.413,448.138 127.118,456.629 143.041,456.629 143.041,456.629 339.967,456.629 339.967,456.629 355.892,456.629 370.601,448.138 378.574,434.336 378.574,434.336 477.043,263.793 477.043,263.793 485.003,249.99 485.003,233.006 477.043,219.205 477.043,219.205 477.043,219.205 477.043,219.205 Z"/>
            </g>
        </g>
        <g inkscape:label="Layer 3" inkscape:groupmode="layer" transform="matrix(0.2, 0, 0, 0.2, 0, 0)" opacity="1" id="Layer_9c235453084e4c84a464e14a83e5bcb0">
            <g inkscape:label="Layer 4" opacity="1" transform="matrix(1, 0, 0, 1, 0, 0)" id="Group_fb89a9e0005745c6945b449bd7d0d3af">
                <g inkscape:label="&lt;Group> 1" opacity="1" transform="matrix(1, 0, 0, 1, 0, 0)" id="Group_7c271489d3c24140a2f7a8e9093c89b6">
                    <g inkscape:label="&lt;Group> 2" opacity="1" transform="matrix(1, 0, 0, 1, 0, 0)" id="Group_91123fe4df0a44f28532c51e69a69ac9">
                        <g stroke="#00000000" opacity="1" transform="matrix(1, 0, 0, 1, 0, 0)" fill="#820933" stroke-width="1" fill-opacity="1" inkscape:label="&lt;Path> 1" stroke-opacity="1" id="Stroke_6642e25c93ee4950a80f6e45e7856030">
                            <path style="" sodipodi:nodetypes="ccccc" d="M 2484.2,513 C 2484.2,513 1382.4,1612.7 1382.4,1612.7 1171.4,1823.3 1171,2165 1381.6,2375.9 1381.6,2375.9 2483.5,1276.2 2483.5,1276.2 2694.5,1065.7 2694.8,724 2484.2,513 2484.2,513 2484.2,513 2484.2,513 Z"/>
                            <path style="fill:none;stroke-dasharray:none;stroke-linecap:butt;stroke-linejoin:miter;" sodipodi:nodetypes="ccccc" d="M 2484.2,513 C 2484.2,513 1382.4,1612.7 1382.4,1612.7 1171.4,1823.3 1171,2165 1381.6,2375.9 1381.6,2375.9 2483.5,1276.2 2483.5,1276.2 2694.5,1065.7 2694.8,724 2484.2,513 2484.2,513 2484.2,513 2484.2,513 Z"/>
                        </g>
                        <g stroke="#00000000" opacity="1" transform="matrix(1, 0, 0, 1, 0, 0)" fill="#820933" stroke-width="1" fill-opacity="1" inkscape:label="&lt;Path> 2" stroke-opacity="1" id="Stroke_7c8e87ebe8b64828a035e092ee966275">
                            <path style="" sodipodi:nodetypes="ccccc" d="M 2504.5,1561.9 C 2504.5,1561.9 1534.9,2529.6 1534.9,2529.6 1534.9,2529.6 1916.2,2911.6 1916.2,2911.6 1916.2,2911.6 2503.8,2325.2 2503.8,2325.2 2714.7,2114.6 2715.1,1772.9 2504.5,1561.9 2504.5,1561.9 2504.5,1561.9 2504.5,1561.9 Z"/>
                            <path style="fill:none;stroke-dasharray:none;stroke-linecap:butt;stroke-linejoin:miter;" sodipodi:nodetypes="ccccc" d="M 2504.5,1561.9 C 2504.5,1561.9 1534.9,2529.6 1534.9,2529.6 1534.9,2529.6 1916.2,2911.6 1916.2,2911.6 1916.2,2911.6 2503.8,2325.2 2503.8,2325.2 2714.7,2114.6 2715.1,1772.9 2504.5,1561.9 2504.5,1561.9 2504.5,1561.9 2504.5,1561.9 Z"/>
                        </g>
                        <g stroke="#00000000" opacity="1" transform="matrix(1, 0, 0, 1, 0, 0)" fill="#820933" stroke-width="1" fill-opacity="1" inkscape:label="&lt;Path> 3" stroke-opacity="1" id="Stroke_1a6ac278fb784db1aeedcf725459c647">
                            <path style="" sodipodi:nodetypes="cccccc" d="M 2617.5,2597.8 C 2617.5,2597.8 2577.7,2558 2577.7,2558 2577.7,2558 2069.5,3065.2 2069.5,3065.2 2069.5,3065.2 2490.5,3487 2490.5,3487 2490.5,3487 2616.7,3361.1 2616.7,3361.1 2827.7,3150.5 2828,2808.8 2617.5,2597.8 2617.5,2597.8 2617.5,2597.8 2617.5,2597.8 Z"/>
                            <path style="fill:none;stroke-dasharray:none;stroke-linecap:butt;stroke-linejoin:miter;" sodipodi:nodetypes="cccccc" d="M 2617.5,2597.8 C 2617.5,2597.8 2577.7,2558 2577.7,2558 2577.7,2558 2069.5,3065.2 2069.5,3065.2 2069.5,3065.2 2490.5,3487 2490.5,3487 2490.5,3487 2616.7,3361.1 2616.7,3361.1 2827.7,3150.5 2828,2808.8 2617.5,2597.8 2617.5,2597.8 2617.5,2597.8 2617.5,2597.8 Z"/>
                        </g>
                    </g>
                </g>
            </g>
        </g>
    </g>
</svg>
