<svg xmlns:sodipodi="http://sodipodi.sourceforge.net/DTD/sodipodi-0.dtd" style="fill:none;stroke:none;" xmlns:cc="http://creativecommons.org/ns#" height="800" viewBox="0 0 800 800" inkscape:export-xdpi="96" inkscape:export-ydpi="96" xmlns:rdf="http://www.w3.org/1999/02/22-rdf-syntax-ns#" xmlns:svg="http://www.w3.org/2000/svg" version="1.1" xmlns="http://www.w3.org/2000/svg" xmlns:dc="http://purl.org/dc/elements/1.1/" xmlns:inkscape="http://www.inkscape.org/namespaces/inkscape" width="800" xmlns:osb="http://www.openswatchbook.org/uri/2009/osb" xmlns:xlink="http://www.w3.org/1999/xlink">
    <defs/>
    <sodipodi:namedview bordercolor="#666666" pagecolor="#ffffff" inkscape:pagecheckerboard="true" borderlayer="true" inkscape:document-units="px"/>
    <title></title>
    <g inkscape:label="Animation" inkscape:groupmode="layer" id="MainComposition_73401283ce5a4347ac8b7ef7651191a5">
        <g inkscape:label="Capa_1 1" inkscape:groupmode="layer" transform="matrix(1.65627, 0, 0, 1.65627, 0, 0)" opacity="1" id="Layer_52cc24a4390f49db80ae65605c9a1144">
            <g stroke="#00000000" opacity="1" transform="matrix(1, 0, 0, 1, 0, 0)" fill="#3abeff" stroke-width="1" fill-opacity="1" inkscape:label="Group" stroke-opacity="1" id="Stroke_9a42b755fca44c45988a54c576a6a9f2">
                <path style="" sodipodi:nodetypes="ccccccccccccc" d="M 477.043,219.205 C 477.043,219.205 378.575,48.677 378.575,48.677 370.601,34.875 355.892,26.385 339.968,26.385 339.968,26.385 143.041,26.385 143.041,26.385 127.118,26.385 112.413,34.875 104.433,48.677 104.433,48.677 5.971,219.205 5.971,219.205 -1.99,233.006 -1.99,249.99 5.971,263.793 5.971,263.793 104.433,434.336 104.433,434.336 112.413,448.138 127.118,456.629 143.041,456.629 143.041,456.629 339.967,456.629 339.967,456.629 355.892,456.629 370.601,448.138 378.574,434.336 378.574,434.336 477.043,263.793 477.043,263.793 485.003,249.99 485.003,233.006 477.043,219.205 477.043,219.205 477.043,219.205 477.043,219.205 Z"/>
                <path style="fill:none;stroke-dasharray:none;stroke-linecap:butt;stroke-linejoin:miter;" sodipodi:nodetypes="ccccccccccccc" d="M 477.043,219.205 C 477.043,219.205 378.575,48.677 378.575,48.677 370.601,34.875 355.892,26.385 339.968,26.385 339.968,26.385 143.041,26.385 143.041,26.385 127.118,26.385 112.413,34.875 104.433,48.677 104.433,48.677 5.971,219.205 5.971,219.205 -1.99,233.006 -1.99,249.99 5.971,263.793 5.971,263.793 104.433,434.336 104.433,434.336 112.413,448.138 127.118,456.629 143.041,456.629 143.041,456.629 339.967,456.629 339.967,456.629 355.892,456.629 370.601,448.138 378.574,434.336 378.574,434.336 477.043,263.793 477.043,263.793 485.003,249.99 485.003,233.006 477.043,219.205 477.043,219.205 477.043,219.205 477.043,219.205 Z"/>
            </g>
        </g>
    </g>
</svg>
